<?xml version="1.0" standalone="no"?>
<!DOCTYPE svg PUBLIC "-//W3C//DTD SVG 20010904//EN"
 "http://www.w3.org/TR/2001/REC-SVG-20010904/DTD/svg10.dtd">
<svg version="1.0" xmlns="http://www.w3.org/2000/svg"
 width="1144.000000pt" height="902.000000pt" viewBox="0 0 1144.000000 902.000000"
 preserveAspectRatio="xMidYMid meet">

<g transform="translate(0.000000,902.000000) scale(0.100000,-0.100000)"
fill="#000000" stroke="none">
<path d="M6445 7841 c-260 -67 -656 -179 -855 -242 -91 -28 -187 -58 -215 -66
-111 -34 -523 -187 -667 -249 -407 -174 -601 -309 -767 -534 -77 -103 -171
-294 -206 -415 -58 -203 -70 -458 -30 -650 43 -208 130 -403 248 -558 60 -79
161 -187 174 -187 5 0 23 46 40 102 l32 102 -40 43 c-52 56 -132 180 -173 268
-123 258 -141 590 -48 865 77 226 230 436 399 549 292 195 887 422 1713 656
390 111 569 155 624 155 57 0 102 -35 112 -87 8 -41 5 -54 -98 -433 -293
-1081 -573 -1783 -812 -2039 -70 -74 -193 -164 -296 -216 -254 -127 -519 -156
-826 -90 l-30 7 -28 -92 c-15 -51 -25 -94 -23 -97 11 -10 115 -33 205 -44 124
-15 350 -6 462 20 339 77 628 268 802 531 242 364 527 1149 799 2200 58 223
60 272 14 365 -32 67 -109 138 -172 159 -95 32 -134 30 -338 -23z"/>
<path d="M5830 6800 c-169 -21 -329 -69 -480 -145 -107 -54 -267 -173 -346
-258 -251 -267 -527 -934 -820 -1978 -156 -556 -168 -634 -115 -744 52 -112
167 -185 290 -185 80 0 461 100 1011 265 620 186 1164 407 1419 576 269 177
468 483 542 829 31 146 31 390 1 536 -43 199 -107 353 -214 513 -47 68 -202
241 -217 241 -7 0 -71 -187 -71 -206 0 -5 20 -34 45 -64 134 -161 220 -348
256 -550 16 -95 17 -315 0 -400 -45 -233 -154 -441 -315 -605 -101 -102 -165
-143 -391 -255 -372 -182 -900 -365 -1665 -573 -413 -113 -434 -116 -484 -56
-38 44 -34 83 30 324 218 822 426 1437 616 1820 105 210 170 307 274 406 205
194 483 301 784 301 109 1 263 -18 314 -38 11 -4 23 19 46 92 17 53 27 101 23
105 -4 4 -55 17 -113 29 -119 25 -307 33 -420 20z"/>
<path d="M2141 2805 c-159 -45 -287 -171 -326 -321 -19 -74 -19 -174 0 -248
62 -236 319 -383 558 -321 155 40 226 116 167 175 -27 27 -54 25 -114 -9 -162
-93 -363 -39 -452 121 -27 49 -29 60 -29 158 0 90 3 111 23 147 33 63 75 106
134 138 73 40 196 47 278 16 30 -12 64 -21 76 -21 49 0 73 80 35 114 -59 54
-244 81 -350 51z"/>
<path d="M2821 2794 c-20 -26 -21 -37 -21 -438 0 -401 1 -413 20 -434 29 -31
73 -29 99 4 19 25 21 40 21 203 0 148 3 181 18 210 25 50 63 74 125 79 73 6
121 -12 155 -56 27 -35 27 -36 32 -235 5 -182 7 -200 24 -213 29 -20 70 -17
92 7 17 19 19 38 19 208 0 161 -3 193 -20 240 -39 106 -139 179 -261 189 -57
4 -92 -3 -166 -33 -17 -7 -18 3 -18 119 0 121 -1 128 -25 151 -32 33 -68 32
-94 -1z"/>
<path d="M6925 2785 l-25 -24 0 -399 c0 -389 1 -400 21 -426 l20 -26 263 0
c282 0 280 0 299 53 8 21 -10 64 -31 72 -8 3 -103 6 -209 6 -107 0 -201 3
-209 6 -11 4 -14 31 -14 124 l0 119 168 0 c188 0 202 5 202 67 0 56 -18 62
-201 65 l-164 3 -3 123 -3 122 194 0 c110 0 207 5 224 10 55 20 64 93 14 119
-12 7 -113 11 -271 11 l-251 0 -24 -25z"/>
<path d="M7770 2792 l-25 -20 -3 -409 c-3 -403 -2 -410 18 -436 26 -33 72 -36
98 -7 14 17 18 47 22 163 l5 142 90 0 90 0 81 -154 c45 -84 87 -157 95 -162
28 -17 67 -10 88 17 12 15 21 33 21 40 0 7 -32 75 -71 150 -68 131 -71 138
-53 151 90 64 137 149 138 248 1 117 -54 207 -159 263 -48 26 -58 27 -230 30
-168 3 -183 2 -205 -16z m406 -152 c56 -52 68 -125 33 -198 -33 -67 -78 -83
-216 -80 l-108 3 -3 153 -3 154 135 -4 c127 -3 136 -4 162 -28z"/>
<path d="M8638 2790 l-28 -21 0 -415 c0 -401 1 -415 20 -434 25 -25 72 -26 93
-2 14 15 17 42 17 149 0 72 3 138 6 147 5 13 26 16 128 16 155 0 202 14 272
84 90 91 111 219 53 334 -32 65 -66 99 -133 135 -37 19 -60 22 -221 25 -172 4
-181 3 -207 -18z m389 -141 c44 -28 63 -66 63 -132 0 -64 -27 -110 -80 -138
-28 -15 -57 -19 -146 -19 -80 0 -113 4 -117 13 -7 19 -9 276 -2 287 4 6 58 10
127 10 105 0 125 -3 155 -21z"/>
<path d="M4566 2769 c-34 -27 -35 -71 -1 -104 48 -49 119 -19 119 50 0 67 -64
96 -118 54z"/>
<path d="M3880 2547 c-94 -27 -163 -87 -207 -182 -55 -119 -31 -261 62 -363
20 -23 62 -54 93 -69 50 -24 69 -28 147 -28 72 0 100 5 139 22 l48 23 30 -25
c34 -29 55 -31 86 -9 21 15 22 20 22 199 0 163 -2 191 -21 242 -26 69 -91 138
-164 172 -60 28 -170 37 -235 18z m183 -141 c42 -17 83 -66 97 -114 44 -159
-81 -289 -239 -248 -61 16 -96 45 -122 101 -44 95 -2 223 86 261 39 17 137 18
178 0z"/>
<path d="M4591 2534 c-20 -26 -21 -39 -21 -304 0 -265 1 -278 21 -304 13 -17
30 -26 49 -26 19 0 36 9 49 26 20 26 21 39 21 304 0 265 -1 278 -21 304 -13
17 -30 26 -49 26 -19 0 -36 -9 -49 -26z"/>
<path d="M4941 2534 c-20 -26 -21 -39 -21 -304 0 -265 1 -278 21 -304 13 -17
30 -26 47 -26 64 1 72 27 72 232 0 190 7 220 64 263 40 29 162 29 203 -1 56
-41 63 -71 63 -265 0 -163 2 -178 21 -203 26 -33 68 -34 98 -2 22 23 22 28 19
217 -3 189 -4 196 -31 251 -68 138 -224 200 -376 149 l-64 -22 -21 20 c-31 29
-70 27 -95 -5z"/>
<path d="M5940 2551 c-113 -37 -178 -131 -152 -220 23 -74 77 -110 245 -160
l92 -27 0 -34 c0 -48 -36 -72 -111 -73 -60 0 -108 17 -133 47 -18 22 -74 20
-94 -2 -31 -34 -22 -76 25 -117 120 -102 335 -80 423 44 26 38 30 51 30 112 0
65 -2 70 -35 104 -29 29 -61 44 -165 78 -143 47 -166 65 -126 98 36 29 117 26
161 -6 39 -29 66 -31 98 -9 50 35 18 106 -68 149 -38 20 -151 29 -190 16z"/>
</g>
</svg>
