<?xml version="1.0" standalone="no"?>
<!DOCTYPE svg PUBLIC "-//W3C//DTD SVG 20010904//EN"
 "http://www.w3.org/TR/2001/REC-SVG-20010904/DTD/svg10.dtd">
<svg version="1.0" xmlns="http://www.w3.org/2000/svg"
 width="856.000000pt" height="856.000000pt" viewBox="0 0 856.000000 856.000000"
 preserveAspectRatio="xMidYMid meet">

<g transform="translate(0.000000,856.000000) scale(0.100000,-0.100000)"
fill="#000000" stroke="none">
<path d="M5235 7591 c-260 -67 -656 -179 -855 -242 -91 -28 -187 -58 -215 -66
-111 -34 -523 -187 -667 -249 -407 -174 -601 -309 -767 -534 -77 -103 -171
-294 -206 -415 -58 -203 -70 -458 -30 -650 43 -208 130 -403 248 -558 60 -79
161 -187 174 -187 5 0 23 46 40 102 l32 102 -40 43 c-52 56 -132 180 -173 268
-123 258 -141 590 -48 865 77 226 230 436 399 549 292 195 887 422 1713 656
390 111 569 155 624 155 89 0 132 -71 106 -174 -58 -229 -228 -841 -265 -956
-237 -720 -380 -1062 -549 -1315 -87 -130 -228 -251 -386 -330 -254 -127 -519
-156 -826 -90 l-30 7 -28 -92 c-15 -51 -25 -94 -23 -97 11 -10 115 -33 205
-44 124 -15 350 -6 462 20 339 77 628 268 802 531 242 364 527 1149 799 2200
58 223 60 272 14 365 -32 67 -109 138 -172 159 -95 32 -134 30 -338 -23z"/>
<path d="M4670 6554 c-439 -40 -822 -268 -1029 -613 -43 -71 -149 -280 -184
-361 -8 -19 -24 -56 -36 -82 -11 -26 -37 -89 -57 -140 -20 -51 -44 -113 -54
-138 -10 -25 -37 -101 -60 -170 -22 -69 -45 -134 -49 -145 -5 -11 -14 -40 -21
-65 -29 -104 -62 -207 -85 -268 -17 -47 -76 -247 -136 -467 -7 -22 -17 -60
-24 -85 -7 -25 -18 -65 -24 -90 -7 -25 -16 -58 -21 -75 -4 -16 -14 -55 -20
-85 -7 -30 -19 -75 -26 -99 -8 -25 -14 -76 -14 -115 0 -59 5 -82 30 -133 55
-112 167 -183 289 -183 80 0 461 100 1011 265 620 186 1164 407 1419 576 269
177 468 483 542 829 31 146 31 390 1 536 -43 199 -107 353 -214 513 -56 82
-206 244 -219 235 -4 -2 -16 -30 -25 -62 -9 -31 -20 -65 -25 -74 -22 -43 -10
-83 46 -154 239 -298 316 -715 198 -1079 -34 -104 -118 -265 -181 -345 -106
-134 -228 -230 -412 -327 -78 -41 -363 -168 -420 -187 -8 -3 -94 -34 -191 -70
-96 -36 -234 -84 -305 -106 -71 -23 -154 -49 -184 -59 -137 -46 -684 -201
-895 -253 -144 -36 -187 -34 -227 12 -40 44 -37 81 28 325 218 822 426 1437
616 1820 105 210 170 307 274 406 205 194 483 301 784 301 109 1 263 -18 314
-38 19 -7 80 175 64 193 -5 7 -35 17 -66 23 -31 7 -76 16 -99 21 -48 10 -248
19 -313 13z"/>
<path d="M938 2555 c-153 -42 -254 -137 -332 -313 -15 -34 -11 -240 6 -282 93
-233 321 -355 551 -295 155 40 226 116 167 175 -27 27 -53 25 -114 -9 -167
-94 -362 -42 -452 121 -27 49 -29 60 -29 158 0 90 3 111 23 147 33 63 75 106
134 138 73 40 196 47 278 16 30 -12 64 -21 76 -21 56 0 72 86 23 122 -65 48
-233 70 -331 43z"/>
<path d="M1627 2556 c-10 -8 -22 -29 -27 -47 -13 -43 -13 -750 0 -803 4 -21
15 -43 22 -47 27 -17 66 -9 87 17 19 25 21 40 21 203 0 193 7 224 62 264 34
25 122 34 172 17 79 -26 114 -131 101 -306 -8 -102 0 -167 22 -189 21 -22 67
-18 89 6 17 19 19 38 19 208 0 161 -3 193 -20 240 -54 147 -219 222 -374 172
-35 -12 -65 -21 -67 -21 -2 0 -4 56 -4 125 0 120 -1 127 -25 150 -27 28 -51
31 -78 11z"/>
<path d="M5747 2551 c-6 -2 -22 -13 -34 -24 l-23 -20 0 -397 c0 -387 1 -398
21 -424 l20 -26 263 0 c282 0 280 0 299 53 8 21 -10 64 -31 72 -8 3 -103 6
-209 6 -107 0 -201 3 -209 6 -11 4 -14 31 -14 124 l0 119 168 0 c188 0 202 5
202 67 0 56 -18 62 -201 65 l-164 3 -3 123 -3 122 194 0 c208 0 248 7 265 45
12 27 3 67 -19 81 -12 7 -498 12 -522 5z"/>
<path d="M6585 2550 c-43 -17 -43 -19 -46 -447 -3 -389 -2 -413 16 -433 23
-26 70 -26 93 0 14 17 18 47 22 163 l5 142 86 3 c61 2 89 -1 96 -10 6 -7 43
-76 83 -153 40 -77 79 -146 88 -152 27 -22 69 -15 91 13 12 15 21 33 21 40 0
7 -32 75 -71 150 -68 131 -71 138 -53 151 90 64 137 149 138 248 1 117 -55
209 -159 262 -46 24 -60 26 -220 28 -93 2 -179 0 -190 -5z m384 -164 c38 -37
55 -86 48 -141 -10 -67 -26 -92 -74 -115 -38 -18 -60 -20 -156 -18 l-112 3 -3
153 -3 154 135 -4 c133 -3 135 -3 165 -32z"/>
<path d="M7432 2535 l-32 -27 0 -409 c0 -396 1 -410 20 -429 25 -25 72 -26 93
-2 14 15 17 42 17 149 0 72 3 138 6 147 5 13 26 16 128 16 155 0 202 14 272
84 90 91 111 219 53 334 -32 65 -67 100 -133 134 -36 19 -62 22 -216 26 l-176
4 -32 -27z m385 -136 c44 -28 63 -66 63 -132 0 -68 -15 -99 -64 -131 -37 -24
-48 -26 -157 -26 -84 0 -118 3 -122 13 -7 19 -9 276 -2 287 4 6 58 10 127 10
105 0 125 -3 155 -21z"/>
<path d="M3357 2515 c-25 -25 -29 -52 -12 -84 43 -83 163 -18 123 66 -11 23
-21 29 -54 31 -28 2 -47 -2 -57 -13z"/>
<path d="M2683 2296 c-124 -31 -207 -121 -243 -263 -32 -125 51 -288 178 -350
50 -24 69 -28 147 -28 72 0 100 5 139 22 l48 23 30 -25 c34 -29 55 -31 86 -9
21 15 22 20 22 199 0 163 -2 191 -21 242 -25 68 -91 137 -161 170 -59 28 -157
36 -225 19z m164 -137 c62 -23 123 -109 123 -171 -1 -141 -126 -234 -262 -194
-60 17 -99 52 -122 108 -39 94 4 217 89 254 36 16 133 18 172 3z"/>
<path d="M3392 2294 c-22 -15 -22 -17 -22 -313 0 -276 1 -299 18 -314 28 -25
67 -21 91 9 20 26 21 39 21 304 0 265 -1 278 -21 304 -23 29 -54 33 -87 10z"/>
<path d="M3735 2284 l-25 -27 0 -271 c0 -253 1 -273 20 -303 15 -25 27 -33 47
-33 65 1 73 26 73 232 0 150 3 178 19 208 28 54 62 74 134 78 74 4 120 -16
154 -67 22 -32 23 -43 23 -216 0 -169 1 -184 21 -209 26 -33 68 -34 98 -2 22
23 22 28 19 217 -3 189 -4 196 -31 251 -32 65 -81 112 -146 141 -61 27 -182
29 -230 5 -44 -23 -57 -23 -88 2 -35 27 -59 25 -88 -6z"/>
<path d="M4730 2297 c-33 -8 -59 -25 -97 -63 -52 -52 -53 -54 -53 -111 0 -105
52 -148 249 -204 69 -19 85 -28 93 -49 8 -21 5 -29 -21 -52 -57 -51 -175 -44
-226 12 -39 43 -115 9 -115 -51 0 -20 12 -37 42 -64 120 -102 335 -80 423 44
26 38 30 51 30 112 0 65 -2 70 -35 104 -29 29 -61 44 -165 78 -142 47 -166 65
-126 98 35 29 116 26 163 -6 43 -29 65 -31 96 -9 32 22 30 73 -5 106 -63 58
-159 79 -253 55z"/>
</g>
</svg>
